<svg xmlns="http://www.w3.org/2000/svg" xmlns:xlink="http://www.w3.org/1999/xlink" xml:space="preserve" version="1.1" style="shape-rendering:geometricPrecision;text-rendering:geometricPrecision;image-rendering:optimizeQuality;" viewBox="0 0 60000 75000" x="0px" y="0px" fill-rule="evenodd" clip-rule="evenodd"><defs><style type="text/css">
   
    .fil0 {fill:black;fill-rule:nonzero}
   
  </style></defs><g><path class="fil0" d="M21186 25021c164,-446 365,-889 598,-1316 643,-1173 1544,-2232 2654,-2881 1134,-663 2475,-898 3966,-396 250,84 504,189 759,315 1040,-1171 2477,-1915 3960,-2143 786,-121 1586,-97 2349,84 767,182 1496,525 2136,1040 1003,809 1777,2038 2114,3738 787,-127 1672,-101 2648,168 463,125 918,298 1358,513 1261,616 2399,1582 3215,2766 821,1191 1317,2605 1287,4109 -26,1335 -465,2734 -1457,4104 682,479 970,1304 940,2207 -16,487 -125,995 -314,1479 -189,483 -459,946 -797,1342 -702,824 -1691,1360 -2859,1212 78,401 99,797 69,1180 -28,831 -285,1559 -680,2041 -365,580 -856,1073 -1427,1437 -655,417 -1416,664 -2212,677 -944,15 -1932,-297 -2848,-1041 -509,1718 -1586,2759 -2876,3286 -871,356 -1836,472 -2785,402 -941,-70 -1871,-325 -2679,-713 -117,-56 -231,-115 -343,-177 -4,-2 -7,-4 -11,-6l-2 -1c-1014,-564 -1794,-1351 -2104,-2251 -664,486 -1526,758 -2454,816 -1036,65 -2161,-135 -3183,-599 -1028,-466 -1956,-1200 -2593,-2200 -639,-1003 -981,-2266 -834,-3784 -857,-134 -2001,-1001 -2858,-2217 -407,-576 -757,-1234 -988,-1930 -234,-705 -345,-1448 -266,-2181 171,-1603 1221,-3144 3805,-4140 -76,-283 -118,-584 -120,-904 -4,-118 -2,-237 5,-357 38,-634 232,-1288 616,-1867 384,-579 956,-1081 1747,-1410 662,-275 1477,-428 2463,-401zm-12495 23068c682,-726 548,-1386 26,-1880 -507,-480 -1338,-833 -2196,-988 -850,-153 -1711,-111 -2287,197 -674,360 -926,1161 -176,2566 69,130 52,283 -33,393l0 0c-582,753 -654,1489 -430,2127 146,418 418,802 758,1129 347,334 763,605 1188,790 729,318 1467,386 1884,72 160,-121 389,-89 510,71 3,5 7,9 10,14 949,1172 1922,1128 2642,552 433,-347 788,-874 1011,-1454 221,-577 307,-1196 203,-1730 -180,-925 -995,-1591 -2786,-1243 -197,38 -388,-92 -426,-289 -24,-124 19,-245 102,-328zm528 -2406c642,608 918,1369 505,2202 1732,-85 2570,789 2791,1927 130,670 29,1430 -238,2125 -266,693 -700,1331 -1238,1762 -975,780 -2252,905 -3475,-447 -633,285 -1496,195 -2315,-162 -501,-219 -991,-539 -1401,-933 -417,-401 -754,-881 -941,-1414 -281,-802 -223,-1708 404,-2622 -862,-1751 -415,-2813 580,-3344 727,-388 1760,-451 2757,-271 989,178 1959,598 2570,1176zm41056 1889c-413,-834 -137,-1594 505,-2202 611,-578 1581,-998 2570,-1176 997,-180 2030,-117 2757,271 995,531 1441,1593 580,3344 627,914 685,1819 404,2622 -187,533 -523,1013 -941,1414 -410,394 -900,714 -1401,933 -818,357 -1681,447 -2315,162 -1223,1352 -2500,1227 -3475,447 -538,-431 -973,-1069 -1238,-1762 -267,-696 -368,-1456 -238,-2126 221,-1138 1059,-2012 2791,-1927zm1007 -1675c-521,494 -656,1153 26,1880 84,82 126,204 102,328 -38,197 -228,327 -426,289 -1791,-348 -2606,318 -2786,1243 -104,533 -18,1153 203,1730 222,580 577,1108 1011,1454 720,576 1693,619 2642,-552 3,-5 7,-9 10,-14 121,-160 349,-192 510,-71 417,314 1155,247 1884,-72 425,-186 840,-457 1188,-790 340,-327 612,-711 758,-1129 223,-638 151,-1374 -430,-2127l0 0c-85,-110 -102,-263 -33,-393 750,-1406 498,-2206 -176,-2566 -577,-308 -1437,-350 -2287,-197 -859,155 -1689,508 -2196,988zm-41183 -36862c-1208,948 -755,1951 -296,2968 86,191 173,383 250,571 76,186 -14,399 -201,474 -186,76 -399,-14 -474,-201 -75,-185 -157,-365 -238,-546 -197,-437 -393,-871 -500,-1306 -557,-247 -1057,-191 -1441,36 -214,126 -396,306 -536,517 -141,213 -237,455 -276,702 -78,486 61,999 500,1356 78,64 130,159 134,268 8,201 -148,370 -349,377 -921,38 -1498,415 -1796,904 -147,242 -229,513 -252,785 -24,276 12,549 98,790 145,404 435,720 828,800 28,4 56,11 83,22 187,73 280,284 207,471 -226,576 -3,1084 443,1445 320,259 751,449 1224,545 476,97 991,97 1473,-25 936,-236 1750,-949 1899,-2329l0 0c3,-30 10,-59 21,-88 70,-188 279,-284 467,-214 204,76 447,76 704,11 371,-94 760,-320 1106,-645 353,-332 655,-764 841,-1261 208,-554 272,-1191 102,-1866 -10,-38 -15,-79 -12,-120 14,-201 188,-352 389,-338 575,41 942,-255 1121,-690 133,-323 174,-722 128,-1129 -47,-412 -182,-825 -399,-1170 -371,-589 -994,-977 -1831,-785 -119,36 -254,10 -352,-80 -658,-606 -1365,-772 -1994,-679 -392,58 -756,213 -1061,423l-9 6zm1441 9101c-295,1488 -1272,2279 -2385,2559 -588,148 -1215,149 -1795,31 -584,-119 -1125,-360 -1537,-693 -593,-480 -925,-1139 -772,-1903 -480,-214 -828,-641 -1013,-1154 -123,-341 -173,-719 -141,-1095 33,-379 148,-761 358,-1104 327,-536 877,-975 1686,-1160 -276,-454 -353,-978 -272,-1480 57,-352 191,-692 387,-990 198,-299 461,-557 775,-742 474,-279 1055,-390 1690,-221 25,-256 113,-517 254,-768 205,-364 525,-711 920,-984 393,-271 862,-472 1369,-546 782,-115 1647,66 2450,740 1115,-193 1946,342 2447,1138 277,440 449,962 508,1478 59,522 2,1046 -179,1485 -244,592 -698,1029 -1381,1126 91,669 0,1301 -212,1865 -228,608 -595,1134 -1024,1537 -435,410 -938,698 -1428,822 -240,61 -478,82 -706,61zm34371 -10147c156,407 301,749 476,1021 18,21 34,45 47,71 91,131 190,244 302,340 369,314 925,470 1871,474 201,1 363,164 362,365 -1,201 -164,363 -365,362 -1138,-5 -1835,-218 -2338,-645 -108,-92 -206,-192 -295,-301 -171,81 -303,205 -401,357 -111,173 -180,385 -208,614 -30,241 -16,495 39,740 104,463 350,890 712,1123l0 0c9,6 17,12 26,18 483,372 1010,551 1556,601 561,52 1147,-30 1732,-178 109,-34 232,-16 330,60 159,123 188,351 66,510 -168,218 -283,502 -330,811 -48,319 -22,660 95,981 116,319 324,621 639,864 323,249 763,438 1339,525l0 1c50,8 100,26 145,56 308,202 651,248 982,187 328,-60 646,-225 913,-449 265,-223 475,-501 586,-791 101,-265 118,-537 13,-776l1 0c-62,-141 -30,-311 92,-418 494,-439 681,-865 677,-1244 -3,-255 -93,-499 -234,-714 -148,-227 -351,-422 -569,-570 -341,-231 -694,-343 -894,-269l0 0c-83,30 -177,31 -265,-6 -186,-77 -274,-290 -197,-476 229,-550 205,-1089 11,-1566 -139,-341 -361,-651 -638,-914 -282,-267 -623,-487 -993,-641 -656,-273 -1393,-332 -2041,-74 -25,11 -51,20 -79,26 -197,39 -389,-89 -429,-286 -164,-817 -480,-1199 -835,-1297 -341,-94 -745,55 -1097,325 -376,289 -679,707 -788,1122 -6,22 -11,44 -15,66zm-462 1146c-309,-407 -355,-902 -226,-1395 150,-571 552,-1134 1047,-1515 520,-400 1153,-611 1735,-450 532,147 998,590 1258,1460 731,-184 1512,-90 2211,201 447,186 863,455 1212,786 354,335 638,731 815,1167 201,495 268,1038 149,1600 302,51 629,187 928,390 294,199 568,464 772,775 211,323 346,698 351,1105 6,521 -202,1080 -743,1626 90,355 50,726 -84,1079 -155,406 -441,790 -799,1091 -357,300 -792,521 -1249,605 -480,89 -980,27 -1440,-250 -670,-111 -1199,-347 -1602,-658 -432,-332 -717,-749 -878,-1191 -161,-441 -197,-905 -132,-1337 21,-143 54,-282 97,-417 -415,63 -830,85 -1239,47 -672,-62 -1321,-281 -1919,-737 -526,-342 -876,-937 -1019,-1570 -74,-328 -93,-668 -54,-987 41,-332 146,-649 319,-919 128,-199 291,-371 492,-504zm576 34353c-89,-47 -123,-157 -76,-246 2,-3 3,-6 5,-9 2,-4 4,-7 6,-11 54,-85 167,-109 251,-55l67 43 3561 1876c62,33 97,96 97,161l17 405c3,39 -5,79 -28,114 -54,85 -167,109 -251,55l-3580 -2297 -69 -36zm-961 -313l1 -1c88,-49 198,-17 247,70l36 64 2385 3528c56,83 34,197 -49,253 -36,24 -78,34 -119,30l-402 -7c-65,1 -128,-33 -162,-93l-1958 -3511 -47 -69c-56,-83 -34,-197 49,-253 6,-4 12,-8 19,-11zm-30728 -858c2,3 4,6 5,9 47,89 13,199 -76,246l-69 36 -3580 2297c-85,54 -197,30 -251,-55 -23,-35 -32,-76 -28,-114l17 -405c0,-65 35,-129 97,-161l3561 -1876 67 -43c85,-54 197,-30 251,55 2,4 4,7 6,11zm642 12c49,-88 159,-119 247,-70l1 1c6,3 13,7 19,11 83,56 105,169 49,253l-47 69 -1958 3511c-34,61 -97,94 -162,93l-402 7c-40,4 -82,-6 -119,-30 -83,-56 -105,-169 -49,-253l2385 -3528 36 -64zm5374 -21087c-5,5 -11,9 -17,14 -82,58 -196,38 -253,-44l-76 -108 -4238 -5044c-30,-29 -50,-69 -54,-114 -9,-100 66,-189 166,-197l653 -56 0 0c62,-5 126,22 164,77l3604 5122 78 92c64,77 55,191 -22,256l-4 3zm-2788 -3608l-1105 -1570 -200 17 1305 1553zm2914 4779c93,37 138,143 101,236 -2,4 -3,8 -5,12 -2,4 -4,9 -6,13 -45,90 -155,126 -244,80l-113 -57 -5810 -2324c-62,-25 -103,-81 -112,-142l0 0 -96 -648c-15,-100 54,-192 154,-207 42,-6 82,3 116,22l5897 2967 117 47zm-5844 -2338l1779 712 -1809 -910 29 198zm28189 -98c-58,82 -171,102 -253,44 -6,-4 -12,-9 -17,-14l-4 -3c-77,-65 -87,-179 -22,-256l78 -92 3604 -5122c39,-55 102,-82 164,-77l0 0 653 56c100,9 175,97 166,197 -4,45 -24,85 -54,114l-4238 5044 -76 108zm3622 -5148l-1105 1570 1305 -1553 -200 -17zm-4115 6597c-2,-4 -4,-8 -5,-12 -37,-93 8,-199 101,-236l117 -47 5897 -2967c34,-19 75,-28 116,-22 100,15 168,107 154,207l-96 648 0 0c-9,62 -50,117 -112,142l-5810 2324 -113 57c-90,45 -199,9 -244,-80 -2,-4 -4,-9 -6,-13zm4161 -1874l1779 -712 29 -198 -1809 910zm-21263 6036c2,201 -160,364 -360,366 -201,2 -364,-160 -366,-360 -3,-357 228,-769 607,-1141 315,-309 742,-605 1221,-825 482,-221 1021,-366 1560,-370 684,-5 1359,212 1913,776 141,143 139,373 -4,514 -143,141 -373,139 -514,-4 -399,-407 -890,-564 -1389,-560 -429,3 -867,123 -1264,305 -400,183 -754,429 -1013,683 -244,239 -392,464 -391,617zm-7667 1683c-175,338 -297,663 -374,972 -75,301 -106,586 -101,855 18,336 89,655 205,936l-1 0c3,7 6,14 8,21 13,38 19,76 20,114 43,99 91,195 144,287 344,600 874,1046 1393,1317 214,112 427,193 624,242 195,49 314,246 265,441 -49,195 -246,314 -441,265 -246,-61 -513,-164 -783,-305 -629,-328 -1271,-870 -1689,-1599 -33,-58 -65,-117 -95,-177 -2277,878 -3197,2189 -3341,3539 -67,626 29,1265 232,1877 206,621 523,1214 894,1740 874,1238 1993,2076 2572,1916 50,-15 104,-19 158,-11 199,30 336,215 306,414 -232,1520 65,2757 673,3710 555,872 1372,1515 2280,1927 914,415 1917,594 2838,536 950,-60 1806,-371 2372,-935 -43,-999 345,-2002 696,-2910 28,-74 56,-145 112,-292 71,-188 281,-283 469,-212 188,71 283,281 212,469 -18,47 -66,172 -115,298 -629,1625 -1394,3605 1220,5114 100,55 203,108 308,159 727,349 1565,579 2417,642 844,63 1697,-39 2460,-351 1221,-498 2219,-1548 2585,-3345 11,-74 46,-145 103,-202 142,-142 373,-141 514,1 887,896 1867,1263 2785,1249 658,-10 1288,-216 1833,-563 481,-307 896,-723 1204,-1214 7,-13 15,-25 23,-37 35,-56 68,-114 99,-172 253,-464 412,-986 448,-1537 3,-247 -17,-507 -66,-774 -155,-858 -596,-1778 -1435,-2584 -145,-139 -149,-369 -10,-514 139,-145 369,-149 514,-10 649,623 1090,1310 1364,1997 1060,294 1967,-152 2593,-886 283,-332 511,-724 671,-1135 160,-410 253,-836 266,-1237 26,-768 -239,-1448 -878,-1728 -37,-13 -72,-32 -104,-58 -157,-125 -183,-354 -58,-511 1067,-1343 1533,-2713 1558,-4005 27,-1342 -420,-2610 -1159,-3682 -744,-1080 -1783,-1961 -2935,-2524 -1249,-610 -2627,-843 -3896,-542 -10,2 -20,4 -30,6 -21,3 -43,4 -63,4 -84,21 -167,44 -249,69 -1324,404 -2261,1285 -2761,1915 -125,157 -354,183 -511,58 -157,-125 -183,-354 -58,-511 562,-708 1618,-1699 3120,-2157 17,-5 34,-10 51,-15 -300,-1529 -980,-2624 -1859,-3333 -550,-444 -1181,-739 -1848,-898 -671,-159 -1377,-180 -2073,-73 -1401,216 -2755,946 -3687,2097 -107,143 -305,189 -466,101 -311,-170 -612,-303 -904,-401 -1268,-427 -2406,-229 -3367,334 -986,577 -1797,1536 -2383,2605 -257,469 -470,957 -634,1441 -46,160 -198,273 -371,263 -993,-59 -1790,74 -2416,335 -647,269 -1110,674 -1419,1140 -8,12 -15,23 -23,35z"/></g><text x="0" y="60015" fill="#000000" font-size="5px" font-weight="bold" font-family="'Helvetica Neue', Helvetica, Arial-Unicode, Arial, Sans-serif">Created by Olena Panasovska</text><text x="0" y="60020" fill="#000000" font-size="5px" font-weight="bold" font-family="'Helvetica Neue', Helvetica, Arial-Unicode, Arial, Sans-serif">from the Noun Project</text></svg>